<svg width="103" height="27" viewBox="0 0 103 27" fill="none" xmlns="http://www.w3.org/2000/svg">
<path d="M1.96166 1.16189V13.0199C1.96166 14.8885 2.40185 16.2719 3.28222 17.1702C4.18055 18.0686 5.40229 18.5177 6.94743 18.5177C8.49256 18.5177 9.69633 18.0776 10.5587 17.1972C11.4391 16.2989 11.8793 14.9064 11.8793 13.0199V1.16189H13.7658V12.993C13.7658 15.3826 13.128 17.1792 11.8523 18.383C10.5947 19.5868 8.95072 20.1887 6.92048 20.1887C4.89024 20.1887 3.2373 19.5868 1.96166 18.383C0.703991 17.1792 0.0751561 15.3826 0.0751561 12.993V1.16189H1.96166ZM19.8331 8.51927C20.3003 7.5311 21.0369 6.71361 22.043 6.06681C23.0672 5.40204 24.2799 5.06966 25.6813 5.06966C27.0108 5.06966 28.2056 5.38407 29.2657 6.01291C30.3437 6.62378 31.1791 7.50415 31.772 8.65402C32.3829 9.78592 32.6883 11.1065 32.6883 12.6157C32.6883 14.1249 32.3829 15.4544 31.772 16.6043C31.1791 17.7542 30.3437 18.6435 29.2657 19.2723C28.2056 19.9012 27.0108 20.2156 25.6813 20.2156C24.2979 20.2156 23.0941 19.8922 22.07 19.2454C21.0459 18.5806 20.3003 17.7542 19.8331 16.766V26.9531H17.9736V5.28526H19.8331V8.51927ZM30.7749 12.6157C30.7749 11.3939 30.5323 10.3429 30.0472 9.46252C29.5801 8.56418 28.9333 7.88145 28.1068 7.41431C27.2803 6.94718 26.3461 6.71361 25.304 6.71361C24.2979 6.71361 23.3726 6.95616 22.5282 7.44126C21.7017 7.92637 21.0459 8.61808 20.5608 9.51642C20.0757 10.4148 19.8331 11.4568 19.8331 12.6426C19.8331 13.8284 20.0757 14.8705 20.5608 15.7688C21.0459 16.6672 21.7017 17.3589 22.5282 17.844C23.3726 18.3291 24.2979 18.5716 25.304 18.5716C26.3461 18.5716 27.2803 18.3381 28.1068 17.8709C28.9333 17.3858 29.5801 16.6941 30.0472 15.7958C30.5323 14.8795 30.7749 13.8194 30.7749 12.6157ZM38.0461 0.0569427V20H36.1596V0.0569427H38.0461ZM48.7592 20.2156C47.3758 20.2156 46.1271 19.9102 45.0131 19.2993C43.9172 18.6705 43.0458 17.7901 42.399 16.6582C41.7702 15.5083 41.4557 14.1698 41.4557 12.6426C41.4557 11.1155 41.7791 9.78592 42.4259 8.65402C43.0727 7.50415 43.9531 6.62378 45.067 6.01291C46.181 5.38407 47.4297 5.06966 48.8131 5.06966C50.1965 5.06966 51.4452 5.38407 52.5592 6.01291C53.6911 6.62378 54.5714 7.50415 55.2003 8.65402C55.8471 9.78592 56.1705 11.1155 56.1705 12.6426C56.1705 14.1518 55.8471 15.4814 55.2003 16.6312C54.5535 17.7811 53.6641 18.6705 52.5322 19.2993C51.4003 19.9102 50.1426 20.2156 48.7592 20.2156ZM48.7592 18.5716C49.7294 18.5716 50.6277 18.356 51.4542 17.9248C52.2807 17.4757 52.9455 16.8109 53.4485 15.9305C53.9696 15.0322 54.2301 13.9362 54.2301 12.6426C54.2301 11.349 53.9785 10.262 53.4755 9.38167C52.9724 8.48333 52.3076 7.81856 51.4812 7.38736C50.6547 6.9382 49.7564 6.71361 48.7862 6.71361C47.816 6.71361 46.9176 6.9382 46.0911 7.38736C45.2647 7.81856 44.5999 8.48333 44.0968 9.38167C43.6117 10.262 43.3692 11.349 43.3692 12.6426C43.3692 13.9362 43.6117 15.0322 44.0968 15.9305C44.5999 16.8109 45.2557 17.4757 46.0642 17.9248C46.8907 18.356 47.789 18.5716 48.7592 18.5716ZM58.7469 12.6157C58.7469 11.1065 59.0434 9.78592 59.6363 8.65402C60.2472 7.50415 61.0826 6.62378 62.1427 6.01291C63.2207 5.38407 64.4334 5.06966 65.7809 5.06966C67.1823 5.06966 68.3861 5.39306 69.3922 6.03986C70.4163 6.68666 71.153 7.51313 71.6021 8.51927V5.28526H73.4886V20H71.6021V16.739C71.135 17.7452 70.3894 18.5806 69.3653 19.2454C68.3591 19.8922 67.1554 20.2156 65.754 20.2156C64.4244 20.2156 63.2207 19.9012 62.1427 19.2723C61.0826 18.6435 60.2472 17.7542 59.6363 16.6043C59.0434 15.4544 58.7469 14.1249 58.7469 12.6157ZM71.6021 12.6426C71.6021 11.4568 71.3596 10.4148 70.8745 9.51642C70.3894 8.61808 69.7246 7.92637 68.8802 7.44126C68.0537 6.95616 67.1374 6.71361 66.1313 6.71361C65.0892 6.71361 64.1549 6.94718 63.3285 7.41431C62.502 7.88145 61.8462 8.56418 61.3611 9.46252C60.894 10.3429 60.6604 11.3939 60.6604 12.6157C60.6604 13.8194 60.894 14.8795 61.3611 15.7958C61.8462 16.6941 62.502 17.3858 63.3285 17.8709C64.1549 18.3381 65.0892 18.5716 66.1313 18.5716C67.1374 18.5716 68.0537 18.3291 68.8802 17.844C69.7246 17.3589 70.3894 16.6672 70.8745 15.7688C71.3596 14.8705 71.6021 13.8284 71.6021 12.6426ZM76.933 12.6157C76.933 11.1065 77.2384 9.78592 77.8493 8.65402C78.4602 7.50415 79.2956 6.62378 80.3556 6.01291C81.4336 5.38407 82.6464 5.06966 83.9939 5.06966C85.2875 5.06966 86.4553 5.38407 87.4974 6.01291C88.5395 6.64174 89.3031 7.45923 89.7882 8.46537V0.0569427H91.6747V20H89.7882V16.7121C89.339 17.7362 88.6024 18.5806 87.5783 19.2454C86.5542 19.8922 85.3504 20.2156 83.967 20.2156C82.6195 20.2156 81.4067 19.9012 80.3287 19.2723C79.2687 18.6435 78.4332 17.7542 77.8223 16.6043C77.2294 15.4544 76.933 14.1249 76.933 12.6157ZM89.7882 12.6426C89.7882 11.4568 89.5456 10.4148 89.0605 9.51642C88.5754 8.61808 87.9107 7.92637 87.0662 7.44126C86.2397 6.95616 85.3234 6.71361 84.3173 6.71361C83.2752 6.71361 82.341 6.94718 81.5145 7.41431C80.688 7.88145 80.0322 8.56418 79.5471 9.46252C79.08 10.3429 78.8464 11.3939 78.8464 12.6157C78.8464 13.8194 79.08 14.8795 79.5471 15.7958C80.0322 16.6941 80.688 17.3858 81.5145 17.8709C82.341 18.3381 83.2752 18.5716 84.3173 18.5716C85.3234 18.5716 86.2397 18.3291 87.0662 17.844C87.9107 17.3589 88.5754 16.6672 89.0605 15.7688C89.5456 14.8705 89.7882 13.8284 89.7882 12.6426ZM97.8679 7.89941C98.2812 6.98311 98.91 6.27343 99.7544 5.77036C100.617 5.26729 101.668 5.01576 102.908 5.01576V6.98311H102.396C101.03 6.98311 99.9341 7.35143 99.1076 8.08807C98.2812 8.8247 97.8679 10.0554 97.8679 11.7802V20H95.9814V5.28526H97.8679V7.89941Z" fill="#EBF2FA"/>
</svg>
