<svg width="11" height="12" viewBox="0 0 11 12" fill="none" xmlns="http://www.w3.org/2000/svg">
<path d="M8.5 4C9.32843 4 10 3.32843 10 2.5C10 1.67157 9.32843 1 8.5 1C7.67157 1 7 1.67157 7 2.5C7 3.32843 7.67157 4 8.5 4Z" stroke="#EBF2FA" stroke-linecap="round" stroke-linejoin="round"/>
<path d="M2.5 7.5C3.32843 7.5 4 6.82843 4 6C4 5.17157 3.32843 4.5 2.5 4.5C1.67157 4.5 1 5.17157 1 6C1 6.82843 1.67157 7.5 2.5 7.5Z" stroke="#EBF2FA" stroke-linecap="round" stroke-linejoin="round"/>
<path d="M8.5 11C9.32843 11 10 10.3284 10 9.5C10 8.67157 9.32843 8 8.5 8C7.67157 8 7 8.67157 7 9.5C7 10.3284 7.67157 11 8.5 11Z" stroke="#EBF2FA" stroke-linecap="round" stroke-linejoin="round"/>
<path d="M3.79498 6.755L7.20998 8.745" stroke="#EBF2FA" stroke-linecap="round" stroke-linejoin="round"/>
<path d="M7.20498 3.255L3.79498 5.245" stroke="#EBF2FA" stroke-linecap="round" stroke-linejoin="round"/>
</svg>
