<svg width="13" height="14" viewBox="0 0 13 14" fill="none" xmlns="http://www.w3.org/2000/svg">
<path d="M10.9782 8.91638C11.48 8.64282 11.8764 8.20995 12.1049 7.68609C12.3333 7.16223 12.3808 6.57722 12.2398 6.02337C12.0989 5.46953 11.7775 4.9784 11.3264 4.6275C10.8753 4.2766 10.3202 4.08591 9.74867 4.08554H9.10045C8.94473 3.48322 8.65449 2.92404 8.25155 2.45004C7.84861 1.97604 7.34346 1.59956 6.77408 1.34889C6.2047 1.09822 5.58589 0.979885 4.9642 1.00279C4.3425 1.0257 3.73408 1.18924 3.18469 1.48113C2.63529 1.77302 2.15922 2.18566 1.79225 2.68803C1.42529 3.19039 1.17699 3.76941 1.06601 4.38156C0.955036 4.9937 0.984276 5.62303 1.15153 6.22225C1.31879 6.82146 1.61971 7.37497 2.03168 7.84114" stroke="#EBF2FA" stroke-width="1.02893" stroke-linecap="round" stroke-linejoin="round"/>
<path d="M6.66187 13.2591L6.66187 8.62894" stroke="#EBF2FA" stroke-width="1.02893" stroke-linecap="round" stroke-linejoin="round"/>
<path d="M4.60399 11.2013L6.66186 13.2591L8.71973 11.2013" stroke="#EBF2FA" stroke-width="1.02893" stroke-linecap="round" stroke-linejoin="round"/>
</svg>
